<svg xmlns="http://www.w3.org/2000/svg" width="47.009" height="48.5" viewBox="0 0 47.009 48.5"><g transform="translate(-2364.635 -3485)"><path d="M18.661,36.179H13.571V3.946a1.7,1.7,0,0,0-1.7-1.7H8.482a1.7,1.7,0,0,0-1.7,1.7V36.179H1.7a1.7,1.7,0,0,0-1.2,2.9L8.981,49.253a1.7,1.7,0,0,0,2.4,0l8.482-10.179A1.7,1.7,0,0,0,18.661,36.179Z" transform="translate(2364.635 3483.75)" fill="#707070"/><path d="M1.318-17.227A4.186,4.186,0,0,1,2.607-20.42a4.833,4.833,0,0,1,3.457-1.216,4.839,4.839,0,0,1,3.472,1.208,4.3,4.3,0,0,1,1.274,3.274V-16.1A4.164,4.164,0,0,1,9.536-12.92a4.815,4.815,0,0,1-3.442,1.2,4.946,4.946,0,0,1-3.464-1.194,4.206,4.206,0,0,1-1.311-3.274ZM4.5-16.1a1.789,1.789,0,0,0,.425,1.238,1.49,1.49,0,0,0,1.172.476q1.538,0,1.538-1.963v-.879a1.887,1.887,0,0,0-.41-1.252,1.425,1.425,0,0,0-1.157-.491,1.455,1.455,0,0,0-1.143.476A1.877,1.877,0,0,0,4.5-17.2ZM11.455-5.229a4.146,4.146,0,0,1,1.3-3.193,4.874,4.874,0,0,1,3.45-1.2,4.926,4.926,0,0,1,3.472,1.187,4.275,4.275,0,0,1,1.289,3.311V-4.1A4.182,4.182,0,0,1,19.688-.908,4.836,4.836,0,0,1,16.23.293,4.946,4.946,0,0,1,12.766-.9a4.206,4.206,0,0,1-1.311-3.274ZM14.619-4.1a1.749,1.749,0,0,0,.469,1.208,1.481,1.481,0,0,0,1.143.52,1.35,1.35,0,0,0,1.538-1.348l.015-1.509a1.811,1.811,0,0,0-.425-1.252A1.472,1.472,0,0,0,16.2-6.958a1.484,1.484,0,0,0-1.128.447A1.787,1.787,0,0,0,14.619-5.3ZM7.031-1.6l-2.3-1.157,10.415-16.67,2.3,1.157Z" transform="translate(2390.682 3506.636)" fill="#707070"/></g></svg>