<svg xmlns="http://www.w3.org/2000/svg" width="46.536" height="47.5" viewBox="0 0 46.536 47.5"><g transform="translate(-2365 -3400)"><path d="M18.661,36.179H13.571V3.946a1.7,1.7,0,0,0-1.7-1.7H8.482a1.7,1.7,0,0,0-1.7,1.7V36.179H1.7a1.7,1.7,0,0,0-1.2,2.9L8.981,49.253a1.7,1.7,0,0,0,2.4,0l8.482-10.179A1.7,1.7,0,0,0,18.661,36.179Z" transform="translate(2365 3397.75)" fill="#707070"/><path d="M13.726,27.016H6.68L5.449,31H-.044L7.778,9.672h4.834L20.493,31H14.971ZM7.91,23.046H12.5l-2.3-7.4Z" transform="translate(2391.043 3390.328)" fill="#707070"/><path d="M7.383,27.045h10.2V31H.967V28.29L11.133,13.642H.908V9.672H17.476v2.637Z" transform="translate(2392.092 3416.328)" fill="#707070"/></g></svg>